<svg width="43" height="41" viewBox="0 0 43 41" fill="none" xmlns="http://www.w3.org/2000/svg">
<g clip-path="url(#clip0_13_5738)">
<path d="M21.0876 0.77356C9.49565 0.77356 0.0876465 9.78428 0.0876465 20.8868C0.0876465 31.9893 9.49565 41 21.0876 41C32.6796 41 42.0876 31.9893 42.0876 20.8868C42.0876 9.78428 32.6796 0.77356 21.0876 0.77356ZM21.0876 6.80752C24.5736 6.80752 27.3876 9.50269 27.3876 12.8415C27.3876 16.1803 24.5736 18.8754 21.0876 18.8754C17.6016 18.8754 14.7876 16.1803 14.7876 12.8415C14.7876 9.50269 17.6016 6.80752 21.0876 6.80752ZM21.0876 35.3683C15.8376 35.3683 11.1966 32.7938 8.48765 28.8918C8.55065 24.8893 16.8876 22.697 21.0876 22.697C25.2666 22.697 33.6246 24.8893 33.6876 28.8918C30.9786 32.7938 26.3376 35.3683 21.0876 35.3683Z" fill="#2E3A59"/>
</g>
<defs>
<clipPath id="clip0_13_5738">
<rect width="42" height="41" fill="white" transform="translate(0.0876465)"/>
</clipPath>
</defs>
</svg>
