<svg width="59" height="58" viewBox="0 0 59 58" fill="none" xmlns="http://www.w3.org/2000/svg">
<path d="M46.4165 53.1666H12.5832C9.91383 53.1666 7.74988 51.0026 7.74988 48.3332V14.4999C7.74988 11.8305 9.91383 9.66658 12.5832 9.66658H17.4165V7.24992C17.4165 5.91523 18.4985 4.83325 19.8332 4.83325V4.83325C21.1679 4.83325 22.2499 5.91523 22.2499 7.24992V9.66658H36.7499V7.24992C36.7499 5.91523 37.8319 4.83325 39.1665 4.83325V4.83325C40.5012 4.83325 41.5832 5.91523 41.5832 7.24992V9.66658H46.4165C49.0859 9.66658 51.2499 11.8305 51.2499 14.4999V48.3332C51.2499 51.0026 49.0859 53.1666 46.4165 53.1666ZM12.5832 24.1666V47.3333C12.5832 47.8855 13.0309 48.3332 13.5832 48.3332H45.4165C45.9688 48.3332 46.4165 47.8855 46.4165 47.3332V24.1666H12.5832ZM13.5832 14.4999C13.0309 14.4999 12.5832 14.9476 12.5832 15.4999V19.3333H46.4165V15.4999C46.4165 14.9476 45.9688 14.4999 45.4165 14.4999H13.5832ZM41.5832 41.0832C41.5832 42.4179 40.5012 43.4999 39.1665 43.4999V43.4999C37.8319 43.4999 36.7499 42.4179 36.7499 41.0832V41.0832C36.7499 39.7486 37.8319 38.6666 39.1665 38.6666V38.6666C40.5012 38.6666 41.5832 39.7486 41.5832 41.0832V41.0832ZM31.9165 41.0832C31.9165 42.4179 30.8346 43.4999 29.4999 43.4999V43.4999C28.1652 43.4999 27.0832 42.4179 27.0832 41.0832V41.0832C27.0832 39.7486 28.1652 38.6666 29.4999 38.6666V38.6666C30.8346 38.6666 31.9165 39.7486 31.9165 41.0832V41.0832ZM22.2499 41.0832C22.2499 42.4179 21.1679 43.4999 19.8332 43.4999V43.4999C18.4985 43.4999 17.4165 42.4179 17.4165 41.0832V41.0832C17.4165 39.7486 18.4985 38.6666 19.8332 38.6666V38.6666C21.1679 38.6666 22.2499 39.7486 22.2499 41.0832V41.0832ZM41.5832 31.4166C41.5832 32.7513 40.5012 33.8333 39.1665 33.8333V33.8333C37.8319 33.8333 36.7499 32.7513 36.7499 31.4166V31.4166C36.7499 30.0819 37.8319 28.9999 39.1665 28.9999V28.9999C40.5012 28.9999 41.5832 30.0819 41.5832 31.4166V31.4166ZM31.9165 31.4166C31.9165 32.7513 30.8346 33.8333 29.4999 33.8333V33.8333C28.1652 33.8333 27.0832 32.7513 27.0832 31.4166V31.4166C27.0832 30.0819 28.1652 28.9999 29.4999 28.9999V28.9999C30.8346 28.9999 31.9165 30.0819 31.9165 31.4166V31.4166ZM22.2499 31.4166C22.2499 32.7513 21.1679 33.8333 19.8332 33.8333V33.8333C18.4985 33.8333 17.4165 32.7513 17.4165 31.4166V31.4166C17.4165 30.0819 18.4985 28.9999 19.8332 28.9999V28.9999C21.1679 28.9999 22.2499 30.0819 22.2499 31.4166V31.4166Z" fill="url(#paint0_linear_13_5684)"/>
<defs>
<linearGradient id="paint0_linear_13_5684" x1="29.6499" y1="-3.17991" x2="32.9971" y2="59.0875" gradientUnits="userSpaceOnUse">
<stop stop-color="#9C2CF3"/>
<stop offset="1" stop-color="#3A49F9"/>
</linearGradient>
</defs>
</svg>
