<svg width="46" height="46" viewBox="0 0 46 46" fill="none" xmlns="http://www.w3.org/2000/svg">
<path d="M36.4167 42.1667H9.58333C7.46624 42.1667 5.75 40.4505 5.75 38.3334V11.5C5.75 9.38295 7.46624 7.66671 9.58333 7.66671H13.4167V5.75004C13.4167 4.69149 14.2748 3.83337 15.3333 3.83337V3.83337C16.3919 3.83337 17.25 4.6915 17.25 5.75004V7.66671H28.75V5.75004C28.75 4.69149 29.6081 3.83337 30.6667 3.83337V3.83337C31.7252 3.83337 32.5833 4.6915 32.5833 5.75004V7.66671H36.4167C38.5338 7.66671 40.25 9.38295 40.25 11.5V38.3334C40.25 40.4505 38.5338 42.1667 36.4167 42.1667ZM9.58333 19.1667V37.3334C9.58333 37.8857 10.031 38.3334 10.5833 38.3334H35.4167C35.969 38.3334 36.4167 37.8857 36.4167 37.3334V19.1667H9.58333ZM10.5833 11.5C10.031 11.5 9.58333 11.9478 9.58333 12.5V15.3334H36.4167V12.5C36.4167 11.9478 35.969 11.5 35.4167 11.5H10.5833ZM32.5833 32.5834C32.5833 33.6419 31.7252 34.5 30.6667 34.5V34.5C29.6081 34.5 28.75 33.6419 28.75 32.5834V32.5834C28.75 31.5248 29.6081 30.6667 30.6667 30.6667V30.6667C31.7252 30.6667 32.5833 31.5248 32.5833 32.5834V32.5834ZM24.9167 32.5834C24.9167 33.6419 24.0585 34.5 23 34.5V34.5C21.9415 34.5 21.0833 33.6419 21.0833 32.5834V32.5834C21.0833 31.5248 21.9415 30.6667 23 30.6667V30.6667C24.0585 30.6667 24.9167 31.5248 24.9167 32.5834V32.5834ZM17.25 32.5834C17.25 33.6419 16.3919 34.5 15.3333 34.5V34.5C14.2748 34.5 13.4167 33.6419 13.4167 32.5834V32.5834C13.4167 31.5248 14.2748 30.6667 15.3333 30.6667V30.6667C16.3919 30.6667 17.25 31.5248 17.25 32.5834V32.5834ZM32.5833 24.9167C32.5833 25.9753 31.7252 26.8334 30.6667 26.8334V26.8334C29.6081 26.8334 28.75 25.9753 28.75 24.9167V24.9167C28.75 23.8582 29.6081 23 30.6667 23V23C31.7252 23 32.5833 23.8582 32.5833 24.9167V24.9167ZM24.9167 24.9167C24.9167 25.9753 24.0585 26.8334 23 26.8334V26.8334C21.9415 26.8334 21.0833 25.9753 21.0833 24.9167V24.9167C21.0833 23.8582 21.9415 23 23 23V23C24.0585 23 24.9167 23.8582 24.9167 24.9167V24.9167ZM17.25 24.9167C17.25 25.9753 16.3919 26.8334 15.3333 26.8334V26.8334C14.2748 26.8334 13.4167 25.9753 13.4167 24.9167V24.9167C13.4167 23.8582 14.2748 23 15.3333 23V23C16.3919 23 17.25 23.8582 17.25 24.9167V24.9167Z" fill="#D8DEF3"/>
</svg>
