<svg width="37" height="37" viewBox="0 0 37 37" fill="none" xmlns="http://www.w3.org/2000/svg">
<path fill-rule="evenodd" clip-rule="evenodd" d="M7.43577 0.140324C7.15917 0.220475 6.92115 0.297033 6.90679 0.310475C6.87402 0.341098 8.04816 4.9735 8.11684 5.08471C8.15362 5.14423 8.30126 5.13345 8.66364 5.04481C8.93664 4.9781 9.18745 4.89881 9.221 4.8687C9.26655 4.82786 8.34271 0.991081 8.07496 0.108982C8.02962 -0.0403229 8.0654 -0.0421201 7.43577 0.140324ZM25.5208 0.238447C25.2671 0.41629 25.2263 0.552583 25.0373 1.85219C24.939 2.5287 24.8249 3.14511 24.7837 3.22203C24.6559 3.46105 24.3843 3.59533 24.1381 3.5412C23.9559 3.50116 23.7659 3.29276 23.0901 2.39205C22.2176 1.22902 22.025 1.06663 21.6751 1.19976C21.5697 1.23987 21.0707 1.58449 20.5663 1.96562L19.6491 2.65867L18.9969 2.61755C17.0997 2.49815 15.0289 2.94132 13.2373 3.85037C12.0991 4.42783 11.2251 5.06458 10.3095 5.98334C8.40766 7.8916 7.29115 10.1815 6.95729 12.8583C6.87295 13.5344 6.86016 13.5694 6.69765 13.5694C6.60361 13.5694 6.43837 13.6584 6.33046 13.7671C6.16465 13.9342 6.10178 14.1237 5.92498 14.9892C5.80981 15.5526 5.68933 16.0135 5.65707 16.0135C5.62489 16.0135 5.21984 15.7478 4.75695 15.4228C3.5469 14.5735 3.64424 14.5542 2.29546 15.9121C1.38844 16.8252 1.22133 17.0271 1.22133 17.2098C1.22133 17.3635 1.39836 17.6847 1.832 18.3181C2.16787 18.8085 2.44267 19.2276 2.44267 19.2491C2.44267 19.2708 1.98201 19.3826 1.4189 19.4978C0.553911 19.6748 0.364532 19.7376 0.197569 19.9036L0 20.0999V21.5127V22.9255L0.197569 23.122C0.364173 23.2877 0.552689 23.3507 1.40094 23.5241C1.95413 23.6373 2.42075 23.741 2.43793 23.7546C2.45502 23.7683 2.18439 24.1978 1.83653 24.709C1.26961 25.5419 1.20855 25.6633 1.24863 25.8769C1.28312 26.0607 1.52846 26.3502 2.32003 27.1408C3.65064 28.4699 3.54625 28.4488 4.73755 27.6279C5.22918 27.2891 5.65039 27.0119 5.6736 27.0119C5.69673 27.0119 5.80981 27.4728 5.92498 28.0363C6.10178 28.9018 6.16465 29.0912 6.33046 29.2583L6.52666 29.456H7.93867H9.35067L9.54688 29.2583C9.71269 29.0912 9.77555 28.9018 9.95236 28.0363C10.0675 27.4729 10.1806 27.0119 10.2037 27.0119C10.2269 27.0119 10.6482 27.2891 11.1398 27.6279C12.2587 28.3989 12.2945 28.3993 13.0459 27.6526L13.5629 27.1386L13.5912 28.2794C13.6154 29.2547 13.6419 29.4694 13.7739 29.7603C13.9755 30.2042 14.2443 30.5516 14.5464 30.7588L14.7898 30.9256L14.8127 32.9044L14.8356 34.8833L15.0368 35.3146C15.2984 35.8752 15.7171 36.2963 16.2641 36.5486C16.6946 36.7473 16.7341 36.752 18.2089 36.7763C19.8531 36.8035 20.3999 36.7397 20.8704 36.466C21.3031 36.2143 21.6945 35.7919 21.904 35.3505C22.0904 34.9581 22.0919 34.9407 22.1155 32.9424L22.1391 30.9296L22.4229 30.7311C22.5789 30.622 22.8038 30.3793 22.9226 30.192C23.2974 29.6008 23.349 29.2943 23.349 27.6609C23.349 25.2767 23.5616 24.7807 25.0289 23.7422C25.9952 23.0583 26.1831 22.8864 26.1071 22.7563C26.072 22.6961 25.896 22.4843 25.7162 22.2856L25.3892 21.9244L25.1414 22.1322C25.0052 22.2465 24.5924 22.5559 24.2243 22.8197C23.1795 23.5685 22.6562 24.2304 22.3311 25.2148C22.1958 25.6242 22.1714 25.9054 22.1342 27.485L22.0918 29.2879L21.8905 29.5517C21.5119 30.048 21.5864 30.0381 18.4088 30.0155L15.554 29.9951L15.3195 29.8277C14.8624 29.5015 14.84 29.397 14.7936 27.3713C14.7465 25.3136 14.6936 25.052 14.1591 24.2283C13.8082 23.6877 13.4775 23.3695 12.6444 22.7713C11.7506 22.1293 11.2954 21.7322 10.6934 21.0691C9.43222 19.6798 8.56572 17.8998 8.17977 15.9057C8.03099 15.137 8.0534 12.9716 8.21807 12.2036C8.88125 9.11098 10.701 6.60047 13.3369 5.14157C14.7125 4.38031 16.127 3.96158 17.7632 3.8314C18.2956 3.78906 18.32 3.79373 18.32 3.93858C18.32 4.15538 18.3944 4.27449 19.2262 5.38878C19.9975 6.4222 20.1019 6.67336 19.8803 6.96227C19.658 7.25197 19.5311 7.25901 18.1381 7.05874C16.6729 6.84812 16.477 6.86609 16.3129 7.22638C16.1839 7.50982 15.699 11.0555 15.7576 11.2861C15.8402 11.6103 16.0808 11.7009 17.3495 11.8853C18.0055 11.9807 18.6222 12.0789 18.7201 12.1035C19.0856 12.1952 19.2357 12.7293 18.983 13.0383C18.9147 13.1217 18.4026 13.5317 17.8448 13.9493C16.8255 14.7128 16.7395 14.8036 16.7395 15.1183C16.7395 15.3121 19.0104 18.3991 19.2456 18.525C19.556 18.6912 19.7408 18.6066 20.812 17.8076C21.3973 17.3711 21.9476 16.996 22.0348 16.974C22.2726 16.914 22.5815 17.0438 22.6995 17.2534C22.7929 17.4191 22.7863 17.5718 22.6391 18.6494C22.5483 19.3149 22.485 19.9855 22.4984 20.1398C22.5396 20.6126 22.6729 20.664 24.5763 20.9406C26.5731 21.2308 26.8863 21.2441 27.0831 21.0472C27.2584 20.8718 27.2625 20.8542 27.4769 19.3562C27.6373 18.2358 27.6674 18.1207 27.8394 17.9724C28.0262 17.8113 28.259 17.7694 28.4854 17.8564C28.5509 17.8815 28.9452 18.3587 29.3615 18.9167C29.7779 19.4747 30.1832 19.9879 30.2621 20.057C30.5969 20.3505 30.7831 20.2611 32.473 18.9952C34.0697 17.7991 34.2533 17.6122 34.1676 17.2706C34.1469 17.188 33.7775 16.6511 33.3466 16.0776C32.9159 15.5041 32.5423 14.9682 32.5164 14.8867C32.4505 14.6789 32.5768 14.3897 32.7963 14.2458C32.9727 14.1301 33.052 14.1336 34.3415 14.3131C35.7321 14.5067 35.9312 14.5006 36.1324 14.2581C36.2167 14.1564 36.7773 10.6661 36.782 10.2128C36.783 10.1261 36.711 9.97094 36.622 9.86815C36.4728 9.69555 36.3533 9.66543 35.07 9.47673C34.2131 9.35079 33.6408 9.23347 33.5784 9.17108C33.4119 9.00438 33.3395 8.6466 33.4336 8.45568C33.4798 8.3623 33.9533 7.95579 34.486 7.5523C35.5654 6.73483 35.7779 6.5242 35.7779 6.27182C35.7779 6.16104 35.3874 5.57468 34.6913 4.64046C33.3211 2.8015 33.3073 2.78669 32.9671 2.78669C32.7364 2.78669 32.5452 2.90049 31.6335 3.58045C31.0482 4.01693 30.4989 4.39188 30.4129 4.41352C30.1663 4.4757 29.8603 4.28794 29.7739 4.02139C29.7139 3.83621 29.7332 3.53638 29.8617 2.65644C30.0689 1.23786 30.0694 1.11472 29.8688 0.881457C29.7156 0.703254 29.6054 0.67867 27.7674 0.412336C26.7005 0.257712 25.7944 0.13026 25.7538 0.12911C25.7132 0.127888 25.6083 0.177129 25.5208 0.238447ZM28.719 1.80999C28.7348 1.82581 28.6937 2.20572 28.6277 2.65421C28.4566 3.81594 28.4689 4.19679 28.6917 4.63665C29.1356 5.51314 30.2275 5.89399 31.0712 5.46663C31.1903 5.40632 31.6364 5.09794 32.0626 4.78128C32.4888 4.46463 32.8473 4.21785 32.8593 4.23295C33.1492 4.5956 34.2107 6.04667 34.2336 6.11151C34.2514 6.16198 33.9649 6.42134 33.5783 6.70442C32.4453 7.5344 32.1684 7.92998 32.168 8.71986C32.1676 9.45121 32.5924 10.1004 33.2518 10.3761C33.3939 10.4355 33.9457 10.5482 34.4778 10.6264C35.01 10.7047 35.4544 10.7777 35.4654 10.7888C35.4764 10.7998 35.4065 11.3248 35.3099 11.9555C35.2133 12.5862 35.1337 13.121 35.1328 13.1441C35.132 13.1672 34.7191 13.1245 34.2153 13.0493C33.7115 12.9741 33.1337 12.9282 32.9313 12.9473C31.8479 13.0496 31.1048 14.0602 31.3266 15.1295C31.3916 15.4425 31.5305 15.6828 32.0479 16.3768C32.4003 16.8496 32.6886 17.2484 32.6886 17.2632C32.6886 17.2778 32.2553 17.6153 31.7258 18.0131L30.763 18.7364L30.1273 17.8981C29.3064 16.8155 29.0219 16.6238 28.24 16.6262C27.5881 16.6282 27.2357 16.7848 26.8385 17.2491C26.5326 17.6066 26.4113 17.9954 26.2889 19.0104C26.2404 19.4133 26.1771 19.7809 26.1485 19.8274C26.1093 19.8908 25.809 19.8712 24.9382 19.7483C23.6039 19.56 23.7205 19.6875 23.8878 18.6014C24.0494 17.5526 24.0307 17.1755 23.795 16.7239C23.438 16.0403 22.7624 15.6708 22.0101 15.748C21.5387 15.7963 21.3316 15.9065 20.415 16.597L19.6652 17.1618L18.9567 16.2159C18.567 15.6957 18.2482 15.2476 18.2482 15.22C18.2482 15.1926 18.6029 14.9018 19.0366 14.574C19.4701 14.2462 19.9074 13.859 20.0081 13.7135C20.6144 12.8381 20.3519 11.6241 19.4408 11.0898C19.2036 10.9507 18.8839 10.871 18.0961 10.7544C17.5278 10.6702 17.0529 10.5935 17.0409 10.584C17.0055 10.5556 17.3316 8.29063 17.3791 8.23528C17.4029 8.20746 17.8588 8.24908 18.3921 8.3278C19.685 8.51858 20.1397 8.43088 20.6847 7.8857C21.0162 7.55388 21.1395 7.26613 21.1774 6.73519C21.2212 6.12373 21.0943 5.83152 20.3686 4.87279C20.0662 4.47326 19.8291 4.11735 19.8417 4.08192C19.8638 4.01988 21.663 2.64292 21.722 2.64292C21.7379 2.64292 22.03 3.01471 22.371 3.46903C22.7121 3.92341 23.1122 4.37384 23.2599 4.47009C24.0231 4.96689 24.9234 4.85727 25.5915 4.18622C25.915 3.86109 26.0338 3.51108 26.1881 2.42727C26.2529 1.9726 26.3165 1.56523 26.3296 1.52195C26.346 1.46753 26.7127 1.49528 27.5218 1.61224C28.1645 1.70519 28.7032 1.79418 28.719 1.80999ZM1.97066 3.83233C1.78609 4.09112 1.64708 4.31223 1.66166 4.32366C1.91836 4.52401 5.79451 7.26613 5.85249 7.28841C5.92512 7.3163 6.65225 6.39567 6.59642 6.3465C6.42953 6.1995 2.40531 3.36177 2.36371 3.36177C2.3321 3.36177 2.15522 3.57355 1.97066 3.83233ZM25.2432 5.91318C23.7579 6.23638 22.5356 7.19748 21.8837 8.55474C21.5034 9.34655 21.3868 9.85894 21.389 10.73C21.3922 12.0384 21.8658 13.1653 22.8132 14.1186C23.2977 14.6061 23.5077 14.7578 24.0723 15.0281C24.9618 15.4542 25.3739 15.5472 26.3305 15.5381C26.973 15.5319 27.2283 15.4955 27.6955 15.3433C29.0303 14.9084 30.0327 14.0281 30.6486 12.7501C31.5579 10.8628 31.081 8.48853 29.5058 7.0609C28.9661 6.57172 27.9663 6.0599 27.2645 5.91333C26.6498 5.78501 25.8325 5.78494 25.2432 5.91318ZM13.4511 7.27885C11.7359 8.52764 10.5248 10.4132 10.1032 12.4912C9.43523 15.7836 10.7859 19.1864 13.5424 21.1558C13.8585 21.3817 14.6028 21.8014 15.1964 22.0886C16.1855 22.5671 16.3155 22.6529 16.7529 23.1168C17.3021 23.6994 17.6469 24.3529 17.7565 25.0195C17.8977 25.8773 17.815 25.7899 18.4858 25.7899H19.0799L19.0303 25.3046C18.9627 24.643 18.9034 24.3945 18.6819 23.8466C18.4292 23.2215 18.0468 22.6578 17.5412 22.165C16.9907 21.6284 16.7289 21.4577 15.7408 20.9914C14.6657 20.484 14.075 20.0974 13.412 19.4672C12.1972 18.3127 11.4012 16.704 11.2038 15.0049C10.91 12.4759 12.0198 9.87016 14.0274 8.37553C14.2941 8.17698 14.5123 7.9885 14.5123 7.95665C14.5123 7.90411 13.9397 6.95602 13.908 6.95602C13.9006 6.95602 13.695 7.1013 13.4511 7.27885ZM27.1062 7.13494C28.4059 7.47366 29.4426 8.50183 29.7888 9.79547C30.1067 10.9833 29.7189 12.3485 28.8033 13.2647C27.3669 14.702 25.1161 14.6932 23.6684 13.2446C22.2241 11.7995 22.235 9.54064 23.6931 8.11315C24.6432 7.18289 25.9039 6.82159 27.1062 7.13494ZM3.04062 9.92788C1.76921 10.2504 0.709092 10.5346 0.684737 10.5593C0.635884 10.609 0.851844 11.5588 0.932668 11.6497C0.970888 11.6927 5.25676 10.6792 5.72252 10.5171C5.83101 10.4793 5.54866 9.32541 5.43321 9.33483C5.38874 9.3385 4.31203 9.60541 3.04062 9.92788ZM7.35516 17.4463C7.41924 17.661 7.47169 17.8438 7.47169 17.8525C7.47169 17.8611 7.30199 17.9077 7.09451 17.956C5.62553 18.2981 4.44386 19.6425 4.27136 21.1681C4.12624 22.4513 4.84834 23.9272 5.94718 24.5935C7.68988 25.6502 9.83727 25.1987 10.9564 23.5403L11.1889 23.1956L11.3958 23.3642C11.5096 23.457 11.8173 23.684 12.0798 23.8687C12.6476 24.2683 13.0757 24.7368 13.29 25.1929L13.4464 25.5256L12.7966 26.1757L12.1467 26.8259L11.4218 26.3352C11.023 26.0652 10.5743 25.8134 10.4247 25.7753C9.91974 25.6471 9.3529 25.9228 9.09685 26.4211C9.04168 26.5286 8.9217 26.9805 8.83031 27.4252L8.66407 28.2339H7.93407H7.204L7.08309 27.6249C6.82294 26.3141 6.60914 25.964 5.96284 25.7898C5.54536 25.6774 5.26373 25.7794 4.44156 26.3412L3.73139 26.8266L3.17963 26.2745L2.62788 25.7224L3.11634 25.0068C3.38503 24.6132 3.63304 24.1674 3.66752 24.0162C3.80524 23.4121 3.4165 22.7803 2.79319 22.5951C2.59828 22.5371 2.16485 22.4353 1.83006 22.3688L1.22133 22.2478V21.5129V20.778L2.02899 20.6171C2.47327 20.5285 2.922 20.4119 3.02625 20.3579C3.4882 20.1189 3.78182 19.5102 3.67047 19.0223C3.63763 18.8782 3.39639 18.4462 3.13445 18.0624C2.8725 17.6786 2.6582 17.3428 2.6582 17.3162C2.6582 17.2896 2.89923 17.0284 3.19379 16.7356L3.72931 16.2033L4.48574 16.716C5.30095 17.2685 5.56885 17.3614 6.00544 17.243C6.48607 17.1126 6.81921 16.71 6.93358 16.1213C6.98883 15.8372 6.99091 15.841 7.11405 16.4448C7.18252 16.7809 7.29107 17.2315 7.35516 17.4463ZM8.16325 19.482C8.58138 20.3077 9.04721 20.9809 9.8354 21.8984L10.2285 22.3561L10.0591 22.6757C9.8262 23.1149 9.26999 23.595 8.77938 23.7802C8.44775 23.9053 8.26031 23.929 7.79498 23.9042C6.83279 23.8528 6.15689 23.3922 5.73057 22.4972C5.52991 22.0759 5.51698 22 5.54723 21.419C5.57029 20.975 5.62546 20.6984 5.73761 20.4646C6.10171 19.7054 6.93976 19.1284 7.70396 19.1107C7.95735 19.1049 7.98271 19.1254 8.16325 19.482ZM30.1023 23.3817V23.9927H32.2217H34.341V23.3817V22.7707H32.2217H30.1023V23.3817ZM29.4571 26.4058C29.2454 26.6669 29.1043 26.9016 29.14 26.9332C29.1754 26.9646 29.9939 27.6477 30.9591 28.4513L32.7139 29.9123L33.0947 29.4865C33.3041 29.2523 33.4762 29.0372 33.4772 29.0086C33.4785 28.969 30.5984 26.5311 29.9518 26.0244C29.8552 25.9487 29.7821 26.0051 29.4571 26.4058ZM17.8889 27.9105V28.809H18.4996H19.1103V27.9105V27.0119H18.4996H17.8889V27.9105ZM26.4383 29.7406V31.9001H27.05H27.6618L27.6427 29.7615L27.6237 27.6229L27.031 27.6021L26.4383 27.5812V29.7406ZM20.9064 31.8641V32.4751H18.4637H16.021V31.9121C16.021 31.6023 16.0426 31.3274 16.0689 31.3011C16.0952 31.2747 17.1944 31.2531 18.5116 31.2531H20.9064V31.8641ZM20.9064 34.1417C20.9064 34.6952 20.7205 35.1034 20.3561 35.3505C20.0965 35.5267 20.0603 35.5307 18.5411 35.5502C16.7972 35.5726 16.6843 35.5477 16.2894 35.053C16.1285 34.8514 16.0717 34.6919 16.0413 34.357C15.9763 33.6389 15.7591 33.6972 18.4974 33.6972H20.9064V34.1417Z" fill="white"/>
</svg>
