<svg width="39" height="41" viewBox="0 0 39 41" fill="none" xmlns="http://www.w3.org/2000/svg">
<rect x="20.9062" y="26.0524" width="4.32143" height="12.244" rx="2.16071" transform="rotate(-45 20.9062 26.0524)" fill="#2E3A59"/>
<path fill-rule="evenodd" clip-rule="evenodd" d="M25.2351 26.8168C30.1573 21.8946 30.1573 13.914 25.2351 8.99181C20.3129 4.06957 12.3323 4.06957 7.41011 8.99181C2.48788 13.914 2.48788 21.8946 7.41011 26.8168C12.3323 31.739 20.3129 31.739 25.2351 26.8168ZM22.6887 24.2704C26.2045 20.7545 26.2045 15.0541 22.6887 11.5382C19.1728 8.02235 13.4724 8.02235 9.95653 11.5382C6.44065 15.0541 6.44065 20.7545 9.95653 24.2704C13.4724 27.7862 19.1728 27.7862 22.6887 24.2704Z" fill="#2E3A59"/>
</svg>
