<svg width="39" height="41" viewBox="0 0 39 41" fill="none" xmlns="http://www.w3.org/2000/svg">
<rect x="20.9059" y="26.0524" width="4.32143" height="12.244" rx="2.16071" transform="rotate(-45 20.9059 26.0524)" fill="white"/>
<path fill-rule="evenodd" clip-rule="evenodd" d="M25.2348 26.8168C30.1571 21.8946 30.1571 13.914 25.2348 8.99181C20.3126 4.06957 12.3321 4.06957 7.40987 8.99181C2.48763 13.914 2.48763 21.8946 7.40987 26.8168C12.3321 31.739 20.3126 31.739 25.2348 26.8168ZM22.6884 24.2704C26.2043 20.7545 26.2043 15.0541 22.6884 11.5382C19.1725 8.02235 13.4722 8.02235 9.95629 11.5382C6.44041 15.0541 6.44041 20.7545 9.95629 24.2704C13.4722 27.7862 19.1725 27.7862 22.6884 24.2704Z" fill="white"/>
</svg>
